<?xml version="1.0" encoding="UTF-8" standalone="no"?>
<!DOCTYPE svg PUBLIC "-//W3C//DTD SVG 1.1//EN" "http://www.w3.org/Graphics/SVG/1.1/DTD/svg11.dtd">
<svg width="100%" height="100%" viewBox="0 0 67 67" version="1.1" xmlns="http://www.w3.org/2000/svg" xmlns:xlink="http://www.w3.org/1999/xlink" xml:space="preserve" xmlns:serif="http://www.serif.com/" style="fill-rule:evenodd;clip-rule:evenodd;stroke-linejoin:round;stroke-miterlimit:2;">
    <g transform="matrix(0.666667,0,0,0.666667,3,4)">
        <path d="M24.89,23.01L57.79,66.99L65.24,66.99L32.34,23.01L24.89,23.01Z" style="fill-rule:nonzero;"/>
        <path d="M45,0C20.147,0 0,20.147 0,45C0,69.853 20.147,90 45,90C69.853,90 90,69.853 90,45C90,20.147 69.853,0 45,0ZM56.032,70.504L41.054,50.477L22.516,70.504L17.751,70.504L38.925,47.63L17.884,19.496L34.101,19.496L47.895,37.94L64.967,19.496L69.732,19.496L50.024,40.788L72.249,70.504L56.032,70.504Z" style="fill-rule:nonzero;"/>
    </g>
</svg>
